<svg width="32" height="32" viewBox="0 0 34 34" fill="none" xmlns="http://www.w3.org/2000/svg">
<path d="M5.06303 16.9623C4.97198 16.9623 4.88466 16.9261 4.82028 16.8617C4.7559 16.7974 4.71973 16.71 4.71973 16.619V16.104C4.71973 16.013 4.7559 15.9257 4.82028 15.8613C4.88466 15.7969 4.97198 15.7607 5.06303 15.7607C5.15408 15.7607 5.2414 15.7969 5.30578 15.8613C5.37016 15.9257 5.40633 16.013 5.40633 16.104V16.619C5.40633 16.71 5.37016 16.7974 5.30578 16.8617C5.2414 16.9261 5.15408 16.9623 5.06303 16.9623Z" fill="#2C6DB5"/>
<path d="M16.7408 27.7103H15.398C14.9947 27.7099 14.6082 27.5495 14.3231 27.2644C14.038 26.9793 13.8776 26.5927 13.8771 26.1895V25.0758C13.0254 24.8625 12.2099 24.5245 11.4569 24.0729L10.6692 24.861C10.3837 25.1456 9.99711 25.3055 9.59402 25.3055C9.19093 25.3055 8.80426 25.1458 8.51876 24.8612L7.56935 23.9112C7.4281 23.77 7.31605 23.6024 7.23961 23.4179C7.16316 23.2334 7.12382 23.0357 7.12383 22.836C7.12383 22.6363 7.16319 22.4385 7.23964 22.2541C7.31609 22.0696 7.42815 21.902 7.56941 21.7608L8.35703 20.9731C7.90526 20.2203 7.56745 19.4046 7.35459 18.5528H6.24042C5.99397 18.5527 5.75122 18.4928 5.53306 18.3781C5.3149 18.2635 5.12785 18.0975 4.988 17.8946C4.96215 17.8575 4.94388 17.8157 4.93424 17.7715C4.92461 17.7273 4.92379 17.6816 4.93185 17.6371C4.93991 17.5927 4.95668 17.5502 4.9812 17.5122C5.00572 17.4742 5.03751 17.4414 5.07473 17.4157C5.11196 17.3901 5.15389 17.372 5.19812 17.3626C5.24234 17.3531 5.288 17.3526 5.33246 17.3608C5.37692 17.3691 5.4193 17.3861 5.45718 17.4108C5.49506 17.4355 5.52768 17.4674 5.55318 17.5048C5.6299 17.6162 5.73253 17.7073 5.85224 17.7702C5.97195 17.8332 6.10516 17.8661 6.24042 17.8662H7.62678C7.70513 17.8662 7.78113 17.893 7.84214 17.9422C7.90316 17.9913 7.94552 18.0599 7.9622 18.1364C8.17075 19.0965 8.54972 20.0115 9.08114 20.8379C9.12349 20.9038 9.14201 20.9822 9.13362 21.0601C9.12524 21.138 9.09045 21.2107 9.03505 21.2661L8.05492 22.2463C7.97742 22.3237 7.91594 22.4156 7.87399 22.5168C7.83204 22.618 7.81044 22.7265 7.81044 22.836C7.81044 22.9456 7.83204 23.054 7.87399 23.1552C7.91594 23.2564 7.97742 23.3484 8.05492 23.4258L9.00422 24.3756C9.16082 24.5317 9.37288 24.6193 9.59395 24.6193C9.81503 24.6193 10.0271 24.5316 10.1836 24.3756L11.1637 23.395C11.2191 23.3396 11.2918 23.3048 11.3697 23.2963C11.4476 23.2879 11.526 23.3064 11.592 23.3487C12.4186 23.88 13.3336 24.2592 14.2937 24.4683C14.3703 24.485 14.4388 24.5274 14.4879 24.5884C14.537 24.6494 14.5638 24.7254 14.5638 24.8037V26.1895C14.564 26.4107 14.652 26.6227 14.8084 26.7791C14.9648 26.9355 15.1768 27.0235 15.398 27.0237H16.7409C16.962 27.0235 17.1741 26.9355 17.3305 26.7791C17.4869 26.6227 17.5748 26.4107 17.5751 26.1895V24.8037C17.5751 24.7254 17.6018 24.6494 17.651 24.5884C17.7001 24.5274 17.7686 24.485 17.8451 24.4683C18.8052 24.2593 19.7202 23.8802 20.5468 23.3488C20.6127 23.3064 20.6912 23.2879 20.7691 23.2963C20.847 23.3047 20.9197 23.3395 20.9751 23.395L21.9552 24.3757C22.1119 24.5316 22.324 24.6192 22.5451 24.6191C22.7661 24.6191 22.9782 24.5315 23.1348 24.3754L24.0838 23.4259C24.24 23.2693 24.3278 23.0572 24.3278 22.8361C24.3278 22.615 24.2401 22.4028 24.0839 22.2463L23.1038 21.2662C23.0484 21.2108 23.0136 21.1381 23.0052 21.0602C22.9968 20.9822 23.0153 20.9038 23.0577 20.8379C23.5891 20.0115 23.9681 19.0965 24.1766 18.1364C24.1933 18.0599 24.2356 17.9913 24.2966 17.9422C24.3577 17.893 24.4337 17.8662 24.512 17.8662H25.8984C26.1195 17.866 26.3316 17.778 26.488 17.6216C26.6444 17.4652 26.7323 17.2532 26.7326 17.032V15.6891C26.7323 15.4679 26.6444 15.2559 26.488 15.0995C26.3316 14.9431 26.1195 14.8551 25.8984 14.8549H24.512C24.4337 14.8549 24.3577 14.8281 24.2966 14.7789C24.2356 14.7298 24.1933 14.6612 24.1766 14.5847C23.968 13.6247 23.5891 12.71 23.0577 11.8838C23.0153 11.8178 22.9968 11.7394 23.0052 11.6615C23.0136 11.5837 23.0483 11.511 23.1037 11.4556L24.0838 10.4749C24.1613 10.3974 24.2228 10.3055 24.2648 10.2043C24.3067 10.1031 24.3283 9.99463 24.3284 9.88508C24.3284 9.77553 24.3068 9.66705 24.2648 9.56584C24.2229 9.46464 24.1614 9.3727 24.0839 9.29527L23.1347 8.34605C22.9781 8.18986 22.766 8.10215 22.5449 8.10215C22.3238 8.10215 22.1117 8.18986 21.9552 8.34605L20.975 9.32617C20.9196 9.38158 20.8469 9.41637 20.769 9.42476C20.6911 9.43314 20.6127 9.41462 20.5467 9.37226C19.7204 8.84085 18.8054 8.46188 17.8453 8.25333C17.7687 8.23665 17.7002 8.19428 17.651 8.13327C17.6019 8.07225 17.5751 7.99626 17.5751 7.91791V6.53156C17.5748 6.31039 17.4868 6.09835 17.3304 5.94196C17.174 5.78556 16.962 5.69759 16.7408 5.69734H15.398C15.1768 5.69759 14.9647 5.78556 14.8084 5.94196C14.652 6.09835 14.564 6.31039 14.5637 6.53156V7.91792C14.5637 7.99627 14.5369 8.07227 14.4878 8.13328C14.4386 8.1943 14.3701 8.23666 14.2935 8.25334C13.3334 8.46204 12.4184 8.84102 11.592 9.37234C11.526 9.41466 11.4476 9.43316 11.3697 9.42476C11.2918 9.41637 11.2192 9.38158 11.1638 9.32618L10.1836 8.34606C10.1062 8.26856 10.0143 8.20707 9.9131 8.16512C9.81191 8.12317 9.70344 8.10158 9.59389 8.10158C9.48434 8.10158 9.37587 8.12317 9.27468 8.16512C9.17348 8.20707 9.08155 8.26856 9.00414 8.34606L8.05491 9.29529C7.97742 9.37269 7.91594 9.46461 7.87399 9.56579C7.83204 9.66696 7.81045 9.77541 7.81043 9.88494C7.81042 9.99447 7.83199 10.1029 7.87392 10.2041C7.91584 10.3053 7.9773 10.3972 8.05478 10.4747L9.03509 11.4556C9.09047 11.511 9.12523 11.5836 9.1336 11.6615C9.14198 11.7394 9.12346 11.8178 9.08113 11.8838C8.54974 12.71 8.17076 13.6247 7.96219 14.5847C7.94551 14.6612 7.90314 14.7298 7.84213 14.7789C7.78111 14.8281 7.70512 14.8549 7.62677 14.8549H6.24041C6.10501 14.8551 5.97167 14.8881 5.85185 14.9512C5.73204 15.0142 5.62933 15.1054 5.55255 15.217C5.52704 15.2543 5.4944 15.2862 5.45652 15.3109C5.41863 15.3356 5.37624 15.3526 5.33178 15.3608C5.28732 15.3691 5.24167 15.3685 5.19744 15.359C5.15322 15.3496 5.11129 15.3315 5.07407 15.3058C5.03686 15.2802 5.00508 15.2474 4.98057 15.2094C4.95606 15.1714 4.93931 15.1289 4.93126 15.0844C4.92321 15.0399 4.92404 14.9942 4.93369 14.9501C4.94333 14.9059 4.96162 14.864 4.98748 14.827C5.1274 14.6239 5.31452 14.4579 5.53276 14.3432C5.75101 14.2285 5.99384 14.1684 6.24041 14.1683H7.35459C7.56751 13.3166 7.90534 12.5012 8.35711 11.7484L7.56937 10.9602C7.42812 10.819 7.31608 10.6514 7.23963 10.4669C7.16319 10.2824 7.12384 10.0847 7.12385 9.88499C7.12385 9.68529 7.16321 9.48754 7.23966 9.30306C7.31612 9.11857 7.42817 8.95095 7.56943 8.80979L8.51865 7.86056C8.65984 7.71929 8.82748 7.60722 9.012 7.53077C9.19651 7.45431 9.39428 7.41497 9.59401 7.41498C9.79374 7.415 9.99151 7.45437 10.176 7.53085C10.3605 7.60733 10.5281 7.71941 10.6693 7.86071L11.4569 8.64824C12.2098 8.19656 13.0254 7.85873 13.8772 7.64573V6.53156C13.8776 6.12835 14.038 5.74179 14.3231 5.45668C14.6082 5.17157 14.9948 5.0112 15.398 5.01074H16.7409C17.1441 5.0112 17.5306 5.17157 17.8157 5.45668C18.1008 5.74179 18.2612 6.12835 18.2617 6.53156V7.64573C19.1135 7.8586 19.9291 8.19642 20.682 8.64819L21.4697 7.86056C21.6108 7.7193 21.7785 7.60724 21.963 7.53079C22.1475 7.45433 22.3452 7.41498 22.5449 7.41498C22.7446 7.41498 22.9424 7.45433 23.1269 7.53079C23.3114 7.60724 23.479 7.7193 23.6202 7.86056L24.5694 8.80979C24.7107 8.95098 24.8227 9.11862 24.8992 9.30313C24.9756 9.48765 25.015 9.68542 25.015 9.88514C25.0149 10.0849 24.9756 10.2826 24.8991 10.4671C24.8226 10.6516 24.7106 10.8193 24.5693 10.9604L23.7817 11.7484C24.2335 12.5011 24.5713 13.3166 24.7842 14.1683H25.8984C26.3016 14.1687 26.6881 14.3291 26.9733 14.6142C27.2584 14.8993 27.4187 15.2859 27.4192 15.6891V17.032C27.4187 17.4352 27.2584 17.8218 26.9733 18.1069C26.6881 18.392 26.3016 18.5524 25.8984 18.5528H24.7842C24.5714 19.4046 24.2335 20.2203 23.7818 20.9731L24.5694 21.7608C24.7106 21.902 24.8227 22.0696 24.8991 22.2541C24.9756 22.4386 25.0149 22.6363 25.0149 22.8361C25.0149 23.0358 24.9756 23.2335 24.8991 23.418C24.8227 23.6025 24.7106 23.7701 24.5694 23.9113L23.6202 24.861C23.3347 25.1455 22.9481 25.3052 22.5451 25.3053C22.142 25.3053 21.7554 25.1457 21.4698 24.8612L20.6819 24.0729C19.929 24.5247 19.1134 24.8626 18.2617 25.0758V26.1895C18.2612 26.5927 18.1008 26.9793 17.8157 27.2644C17.5306 27.5495 17.144 27.7099 16.7408 27.7103Z" fill="#2C6DB5"/>
<path d="M16.0694 22.3596C14.8828 22.3603 13.7227 22.0092 12.7357 21.3505C11.7487 20.6918 10.9793 19.7553 10.5246 18.6592C10.07 17.5632 9.95067 16.3569 10.1817 15.1931C10.4127 14.0292 10.9837 12.96 11.8225 12.1206C12.6612 11.2813 13.7301 10.7096 14.8938 10.4779C16.0575 10.2461 17.2639 10.3646 18.3602 10.8186C19.4565 11.2725 20.3936 12.0413 21.0529 13.0279C21.7123 14.0144 22.0642 15.1744 22.0642 16.3609C22.0629 17.9508 21.431 19.4753 20.3072 20.5998C19.1833 21.7244 17.6593 22.3573 16.0694 22.3596ZM16.0694 11.0489C15.0186 11.0481 13.9912 11.359 13.1172 11.9422C12.2431 12.5255 11.5616 13.3548 11.159 14.3254C10.7563 15.296 10.6506 16.3642 10.8551 17.3949C11.0596 18.4256 11.5652 19.3724 12.308 20.1157C13.0507 20.859 13.9972 21.3653 15.0278 21.5706C16.0583 21.7759 17.1266 21.6709 18.0975 21.269C19.0683 20.8671 19.8982 20.1862 20.482 19.3126C21.0659 18.4389 21.3776 17.4117 21.3776 16.3609C21.3765 14.9531 20.817 13.6032 19.8219 12.6073C18.8268 11.6115 17.4773 11.051 16.0694 11.0489Z" fill="#2C6DB5"/>
<path d="M29.5059 11.7829C29.4807 11.7886 29.455 11.7914 29.4292 11.7915C29.3515 11.7914 29.2761 11.7649 29.2154 11.7164C29.1547 11.6678 29.1123 11.6001 29.0951 11.5243C27.9273 6.4034 22.4493 2.6866 16.0697 2.6866C11.0895 2.6866 6.58087 4.95124 4.31108 8.52327C4.18635 8.71896 4.06887 8.91845 3.95863 9.12176L3.31494 8.87001C3.42307 8.66574 3.53846 8.46529 3.6611 8.26866C6.03273 4.43571 10.8052 2 16.0697 2C22.7663 2 28.5258 5.94109 29.7645 11.3715C29.7846 11.4604 29.7686 11.5535 29.7202 11.6306C29.6717 11.7077 29.5946 11.7625 29.5059 11.7829Z" fill="#2C6DB5"/>
<path d="M5.13748 9.34803C5.11386 9.18524 5.04729 9.03167 4.94461 8.90315C4.84193 8.77463 4.70686 8.67579 4.5533 8.6168L4.31127 8.5224L3.66129 8.26778L3.27737 8.1173C3.12439 8.05732 2.95832 8.03869 2.79585 8.06326C2.63338 8.08783 2.48025 8.15475 2.35185 8.25728C2.22345 8.35981 2.12432 8.49435 2.06441 8.64735C2.0045 8.80036 1.98594 8.96644 2.01059 9.12889L2.216 10.4838C2.23972 10.6465 2.30633 10.8001 2.409 10.9286C2.51166 11.0571 2.64667 11.1559 2.80018 11.215C2.90987 11.2583 3.02671 11.2806 3.14462 11.2808C3.35618 11.2803 3.56123 11.2076 3.72594 11.0748L4.79647 10.2194C4.92562 10.1176 5.02529 9.98318 5.08523 9.83002C5.14517 9.67685 5.1632 9.51048 5.13748 9.34803ZM4.36792 9.68332L3.29739 10.5381C3.26323 10.5656 3.22244 10.5835 3.17913 10.5901C3.13582 10.5968 3.09154 10.5918 3.05074 10.5759C3.00994 10.5599 2.97407 10.5335 2.94675 10.4992C2.91944 10.465 2.90164 10.4241 2.89516 10.3808L2.68918 9.0259C2.68219 8.98267 2.68695 8.93835 2.70295 8.89759C2.71896 8.85682 2.74562 8.82111 2.78015 8.79418C2.82389 8.75874 2.87835 8.73918 2.93464 8.73867C2.96617 8.73893 2.99739 8.74494 3.02676 8.75641L3.31513 8.86913L3.95882 9.12088L4.30326 9.25591C4.34403 9.27192 4.37987 9.29837 4.40718 9.33261C4.4345 9.36684 4.45233 9.40766 4.45888 9.45097C4.46543 9.49427 4.46047 9.53854 4.44451 9.57932C4.42854 9.62011 4.40213 9.65597 4.36792 9.68332Z" fill="#2C6DB5"/>
<path d="M28.8244 23.8519C28.7162 24.0561 28.6009 24.2568 28.4782 24.4538C26.106 28.2862 21.3341 30.7225 16.0696 30.7225C9.37242 30.7225 3.61299 26.7808 2.37482 21.3504C2.35456 21.2616 2.37039 21.1684 2.41884 21.0913C2.46729 21.0142 2.54438 20.9595 2.63315 20.9393C2.72192 20.919 2.81511 20.9348 2.8922 20.9833C2.9693 21.0317 3.02399 21.1088 3.04425 21.1976C4.21147 26.3185 9.68997 30.0359 16.0696 30.0359C21.0492 30.0359 25.5579 27.7707 27.8277 24.1986C27.9524 24.0029 28.0701 23.8034 28.1807 23.6001L28.8244 23.8519Z" fill="#2C6DB5"/>
<path d="M30.1287 23.5929L29.9233 22.238C29.8987 22.0756 29.8317 21.9225 29.7292 21.7942C29.6267 21.6658 29.4922 21.5667 29.3392 21.5068C29.1862 21.4469 29.0202 21.4283 28.8578 21.4529C28.6954 21.4775 28.5423 21.5445 28.4139 21.647L27.3428 22.5023C27.2145 22.6049 27.1154 22.7394 27.0556 22.8924C26.9957 23.0454 26.9772 23.2114 27.0018 23.3739C27.0264 23.5363 27.0934 23.6893 27.1959 23.8177C27.2985 23.946 27.433 24.0451 27.586 24.105L27.828 24.1994L28.4786 24.4546L28.8625 24.6045C28.972 24.6477 29.0886 24.6701 29.2064 24.6703C29.3409 24.6695 29.4737 24.6399 29.5957 24.5833C29.7178 24.5267 29.8262 24.4445 29.9137 24.3423C30.0012 24.2401 30.0656 24.1203 30.1027 23.991C30.1398 23.8617 30.1487 23.7259 30.1287 23.5929ZM29.3591 23.9282C29.3251 23.9559 29.2843 23.9739 29.2409 23.9805C29.1975 23.987 29.1532 23.9818 29.1125 23.9654L28.8247 23.8527L28.181 23.6009L27.8366 23.4659C27.7959 23.4499 27.7601 23.4235 27.7328 23.3894C27.7055 23.3552 27.6876 23.3145 27.681 23.2712C27.6744 23.228 27.6793 23.1838 27.6951 23.1431C27.711 23.1023 27.7373 23.0664 27.7714 23.039L28.8425 22.1837C28.8853 22.1479 28.9394 22.1285 28.9952 22.1287C29.0272 22.1286 29.0588 22.1346 29.0885 22.1465C29.1295 22.1619 29.1656 22.1881 29.193 22.2223C29.2204 22.2566 29.2381 22.2976 29.2441 22.341L29.4501 23.6959C29.457 23.7392 29.4522 23.7836 29.4362 23.8244C29.4202 23.8653 29.3936 23.9011 29.3591 23.9282Z" fill="#2C6DB5"/>
</svg>
