<svg width="104" height="56" viewBox="0 0 104 56" fill="none" xmlns="http://www.w3.org/2000/svg">
<path d="M0.958008 36.4321L7.42285 20.3072C7.54669 20.0843 8.04704 19.6384 9.05763 19.6384H17.3802C18.6434 19.6384 20.7241 19.787 21.2442 18.6724C21.7644 17.5578 22.0818 17.0092 22.8047 15.4028C23.4735 13.9167 23.4735 13.9908 24.8853 13.9908L28.7494 13.9908C27.288 16.9879 24.9597 22.8335 23.3249 23.9483C22.2387 24.689 20.6498 24.7657 19.6838 24.7657H11.3612L6.67976 36.4321H0.958008Z" fill="#2C6DB5"/>
<path d="M30.6073 8.86365C31.6179 6.78302 31.6476 6.78299 31.5733 6.78302H24.9599L26.7433 2.91895H22.582C21.8389 2.91895 21.3931 2.91895 20.9472 3.88496C20.5905 4.65776 19.9356 6.139 19.6527 6.78302H17.3061C13.8879 6.78302 12.3274 8.6407 11.5843 10.4241C10.9899 11.8508 9.256 15.6752 8.46338 17.4091H13.8879C14.4824 15.9477 15.701 12.9357 15.8199 12.579C15.9685 12.1332 16.1172 11.836 17.0832 11.836C18.0492 11.836 21.1701 11.7617 25.5543 11.836C29.9385 11.9103 29.3441 11.4645 30.6073 8.86365Z" fill="#2C6DB5"/>
<path d="M32.3801 36.1634C30.9949 36.1634 29.7732 35.8755 28.7149 35.2997C27.6566 34.7238 26.8395 33.9145 26.2637 32.8718C25.6879 31.829 25.3999 30.6307 25.3999 29.2767C25.3999 27.3313 25.8046 25.6037 26.6139 24.0941C27.4387 22.5689 28.5826 21.3861 30.0456 20.5457C31.5241 19.7052 33.2127 19.285 35.1114 19.285C36.5277 19.285 37.765 19.573 38.8233 20.1488C39.8971 20.7091 40.722 21.5106 41.2978 22.5533C41.8737 23.5805 42.1616 24.7711 42.1616 26.1251C42.1616 28.0549 41.7492 29.7825 40.9243 31.3077C40.0995 32.8329 38.9478 34.0235 37.4693 34.8794C35.9908 35.7354 34.2944 36.1634 32.3801 36.1634ZM33.0804 31.9146C33.9987 31.9146 34.8002 31.6734 35.4849 31.1909C36.1853 30.7085 36.7144 30.0704 37.0724 29.2767C37.4459 28.4674 37.6327 27.5958 37.6327 26.662C37.6327 25.666 37.3603 24.8956 36.8156 24.3509C36.2865 23.7906 35.5239 23.5105 34.5278 23.5105C33.6096 23.5105 32.8003 23.7517 32.0999 24.2342C31.3996 24.7011 30.8627 25.3314 30.4891 26.1251C30.1156 26.9188 29.9289 27.7904 29.9289 28.7397C29.9289 29.7202 30.2012 30.4984 30.7459 31.0742C31.2906 31.6345 32.0688 31.9146 33.0804 31.9146Z" fill="#2C6DB5"/>
<path d="M70.9458 19.5418L64.0124 36H58.3863L57.896 25.8917L53.7873 36H48.1612L47.0873 19.5418H52.0365L51.9898 30.7941L56.542 19.5418H61.5612L62.0981 30.7474L65.9967 19.5418H70.9458Z" fill="#2C6DB5"/>
<path d="M79.4318 23.1603L78.9649 25.8917H84.2175L83.5872 29.37H78.3346L77.7976 32.3582H83.7506L83.1203 36H72.5684L75.4865 19.5418H86.0151L85.3847 23.1603H79.4318Z" fill="#2C6DB5"/>
<path d="M97.2909 19.5418C99.0184 19.5418 100.334 19.9309 101.236 20.7091C102.139 21.4717 102.59 22.4911 102.59 23.7673C102.59 24.1563 102.559 24.5065 102.497 24.8178C102.31 25.9383 101.835 26.9266 101.073 27.7826C100.31 28.623 99.2986 29.2222 98.0379 29.5801L100.606 36H95.5167L93.3223 29.9303H92.832L91.7582 36H87.1592L90.0773 19.5418H97.2909ZM93.3923 26.8021H95.6568C96.8707 26.8021 97.5866 26.2263 97.8045 25.0746C97.8356 24.8878 97.8512 24.7555 97.8512 24.6777C97.8512 24.2575 97.7111 23.9307 97.431 23.6972C97.1664 23.4638 96.7695 23.3471 96.2404 23.3471H93.9759L93.3923 26.8021Z" fill="#2C6DB5"/>
</svg>
