<svg width="14" height="8" viewBox="0 0 14 8" fill="none" xmlns="http://www.w3.org/2000/svg">
<path d="M4.8049 1.13807C5.06525 0.877722 5.06525 0.455612 4.8049 0.195262C4.54455 -0.0650874 4.12244 -0.0650874 3.86209 0.195262L0.528758 3.5286C0.268409 3.78894 0.268409 4.21106 0.528758 4.4714L3.86209 7.80474C4.12244 8.06509 4.54455 8.06509 4.8049 7.80474C5.06525 7.54439 5.06525 7.12228 4.8049 6.86193L1.94297 4L4.8049 1.13807Z" fill="black"/>
<path d="M10.1382 0.195262C9.87788 -0.0650874 9.45577 -0.0650874 9.19542 0.195262C8.93507 0.455612 8.93507 0.877722 9.19542 1.13807L12.0574 4L9.19542 6.86193C8.93507 7.12228 8.93507 7.54439 9.19542 7.80474C9.45577 8.06509 9.87788 8.06509 10.1382 7.80474L13.4716 4.4714C13.7319 4.21106 13.7319 3.78894 13.4716 3.5286L10.1382 0.195262Z" fill="black"/>
</svg>
