<svg width="40" height="40" viewBox="0 0 40 40" fill="none" xmlns="http://www.w3.org/2000/svg">
<path d="M13.6721 20.4625C12.8439 20.4625 12.0343 20.7081 11.3456 21.1682C10.657 21.6283 10.1203 22.2823 9.80333 23.0475C9.48638 23.8127 9.40346 24.6546 9.56503 25.4669C9.72661 26.2792 10.1254 27.0254 10.7111 27.611C11.2967 28.1966 12.0428 28.5955 12.8551 28.757C13.6674 28.9186 14.5094 28.8357 15.2746 28.5187C16.0397 28.2018 16.6937 27.6651 17.1538 26.9764C17.614 26.2878 17.8596 25.4782 17.8596 24.65C17.8587 23.5397 17.4173 22.475 16.6322 21.6899C15.847 20.9048 14.7824 20.4633 13.6721 20.4625ZM13.6721 27.8969C13.0291 27.8969 12.4007 27.7062 11.8661 27.3489C11.3316 26.9917 10.9151 26.4839 10.6692 25.8899C10.4233 25.2958 10.3591 24.6422 10.4847 24.0117C10.6104 23.3812 10.9202 22.8021 11.3751 22.3477C11.8299 21.8933 12.4093 21.584 13.0399 21.4589C13.6706 21.3339 14.3242 21.3987 14.918 21.6452C15.5118 21.8916 16.0191 22.3087 16.3759 22.8435C16.7326 23.3784 16.9227 24.0071 16.9221 24.65C16.9204 25.5112 16.5774 26.3365 15.9682 26.9452C15.3589 27.5538 14.5332 27.896 13.6721 27.8969ZM34.5127 10.8687V7.65937C34.5119 7.19107 34.3257 6.74213 33.9948 6.41069C33.664 6.07926 33.2154 5.89228 32.7471 5.89062H10.8408C10.1203 5.8931 9.43004 6.18087 8.92111 6.69096C8.41219 7.20105 8.12602 7.89195 8.1252 8.6125V8.80625C8.1252 8.80625 8.1252 8.82187 8.1252 8.83125L8.2127 17.2687C7.81574 17.3212 7.44691 17.5023 7.1627 17.7844L6.80645 18.125C6.46383 18.4754 6.27199 18.9459 6.27199 19.4359C6.27199 19.926 6.46383 20.3965 6.80645 20.7469C6.82444 20.7707 6.83418 20.7998 6.83418 20.8297C6.83418 20.8596 6.82444 20.8886 6.80645 20.9125C6.54613 21.3936 6.33666 21.9005 6.18145 22.425C6.17492 22.4541 6.15929 22.4804 6.13682 22.5001C6.11434 22.5198 6.08619 22.5318 6.05645 22.5344C5.56619 22.5392 5.09734 22.7359 4.75036 23.0823C4.40339 23.4287 4.20589 23.8972 4.2002 24.3875V24.8875C4.20589 25.3778 4.40339 25.8463 4.75036 26.1927C5.09734 26.5391 5.56619 26.7358 6.05645 26.7406C6.08619 26.7432 6.11434 26.7552 6.13682 26.7749C6.15929 26.7945 6.17492 26.8209 6.18145 26.85C6.33666 27.3745 6.54613 27.8814 6.80645 28.3625C6.82469 28.3857 6.83462 28.4143 6.83462 28.4437C6.83462 28.4732 6.82469 28.5018 6.80645 28.525C6.4629 28.8755 6.27046 29.3467 6.27046 29.8375C6.27046 30.3283 6.4629 30.7995 6.80645 31.15L7.15957 31.5C7.50768 31.8481 7.9798 32.0436 8.47207 32.0436C8.96435 32.0436 9.43646 31.8481 9.78457 31.5C9.80814 31.4827 9.8366 31.4734 9.86582 31.4734C9.89504 31.4734 9.9235 31.4827 9.94707 31.5C10.4282 31.7603 10.9351 31.9698 11.4596 32.125C11.4887 32.1315 11.515 32.1472 11.5347 32.1696C11.5543 32.1921 11.5663 32.2203 11.5689 32.25C11.5731 32.7435 11.7716 33.2155 12.1214 33.5635C12.4712 33.9116 12.9442 34.1077 13.4377 34.1094H13.9377C14.4279 34.1037 14.8965 33.9062 15.2429 33.5592C15.5892 33.2122 15.786 32.7434 15.7908 32.2531C15.7934 32.2234 15.8054 32.1952 15.8251 32.1728C15.8447 32.1503 15.8711 32.1346 15.9002 32.1281C16.4247 31.9729 16.9316 31.7634 17.4127 31.5031C17.4368 31.4856 17.4657 31.4762 17.4955 31.4762C17.5253 31.4762 17.5543 31.4856 17.5783 31.5031C17.9263 31.8502 18.3977 32.0452 18.8893 32.0452C19.3808 32.0452 19.8522 31.8502 20.2002 31.5031L20.5533 31.15C20.7588 30.9413 20.911 30.6862 20.9971 30.4063H33.4096C34.0442 30.4054 34.6526 30.153 35.1013 29.7042C35.55 29.2555 35.8025 28.6471 35.8033 28.0125V12.9844C35.801 12.5477 35.6796 12.1199 35.4522 11.7471C35.2248 11.3743 34.8999 11.0706 34.5127 10.8687ZM9.0627 8.6125C9.0627 8.13925 9.25069 7.68539 9.58533 7.35076C9.91996 7.01612 10.3738 6.82812 10.8471 6.82812H32.7533C32.9732 6.82895 33.1839 6.91689 33.3391 7.07269C33.4943 7.22849 33.5814 7.43945 33.5814 7.65937V8.24063H10.7346V9.17813H33.5752V10.5906H10.8408C10.3735 10.589 9.92543 10.4042 9.59294 10.0758C9.26045 9.74739 9.07006 9.30165 9.0627 8.83437V8.6125ZM19.8814 30.4875L19.5283 30.8375C19.3538 31.0046 19.1215 31.0979 18.8799 31.0979C18.6383 31.0979 18.406 31.0046 18.2314 30.8375C18.0656 30.6745 17.8515 30.5696 17.621 30.5386C17.3906 30.5076 17.1563 30.5522 16.9533 30.6656C16.5323 30.9007 16.087 31.0893 15.6252 31.2281C15.4017 31.2916 15.2048 31.4258 15.0639 31.6106C14.9231 31.7954 14.8459 32.0208 14.8439 32.2531C14.8439 32.4963 14.7476 32.7295 14.576 32.9017C14.4043 33.0739 14.1714 33.171 13.9283 33.1719H13.4377C13.3155 33.1744 13.194 33.1524 13.0803 33.1074C12.9667 33.0623 12.8632 32.9951 12.7759 32.9095C12.6886 32.8239 12.6192 32.7218 12.5719 32.6091C12.5245 32.4964 12.5002 32.3754 12.5002 32.2531C12.4992 32.0205 12.4224 31.7946 12.2815 31.6096C12.1405 31.4246 11.943 31.2907 11.7189 31.2281C11.2577 31.0933 10.8124 30.9089 10.3908 30.6781C10.2278 30.589 10.0453 30.5418 9.85957 30.5406C9.57906 30.5418 9.31046 30.6542 9.1127 30.8531C8.93819 31.0203 8.70589 31.1135 8.46426 31.1135C8.22263 31.1135 7.99033 31.0203 7.81582 30.8531L7.47207 30.5C7.38675 30.4149 7.31905 30.3139 7.27286 30.2026C7.22667 30.0913 7.2029 29.972 7.2029 29.8516C7.2029 29.7311 7.22667 29.6118 7.27286 29.5005C7.31905 29.3892 7.38675 29.2882 7.47207 29.2031C7.63509 29.0373 7.73996 28.8231 7.77095 28.5927C7.80194 28.3623 7.75738 28.128 7.64395 27.925C7.41318 27.5035 7.22877 27.0581 7.09395 26.5969C7.03138 26.3729 6.89744 26.1754 6.71245 26.0344C6.52747 25.8934 6.30154 25.8166 6.06895 25.8156C5.82582 25.8156 5.5926 25.7193 5.42039 25.5476C5.24818 25.376 5.15102 25.1431 5.1502 24.9V24.4C5.15102 24.1569 5.24818 23.924 5.42039 23.7524C5.5926 23.5807 5.82582 23.4844 6.06895 23.4844C6.30141 23.4829 6.52709 23.4059 6.71198 23.265C6.89686 23.1241 7.03092 22.9269 7.09395 22.7031C7.22877 22.2419 7.41318 21.7965 7.64395 21.375C7.75738 21.172 7.80194 20.9377 7.77095 20.7073C7.73996 20.4769 7.63509 20.2627 7.47207 20.0969C7.38675 20.0118 7.31905 19.9108 7.27286 19.7995C7.22667 19.6882 7.2029 19.5689 7.2029 19.4484C7.2029 19.328 7.22667 19.2087 7.27286 19.0974C7.31905 18.9861 7.38675 18.8851 7.47207 18.8L7.8127 18.4375C7.9872 18.2704 8.2195 18.1771 8.46113 18.1771C8.70276 18.1771 8.93506 18.2704 9.10957 18.4375C9.27473 18.6015 9.48878 18.7072 9.71936 18.7388C9.94994 18.7704 10.1845 18.726 10.3877 18.6125C10.8098 18.382 11.2549 18.1966 11.7158 18.0594C11.9389 17.9989 12.1362 17.8673 12.2777 17.6846C12.4193 17.5019 12.4974 17.278 12.5002 17.0469C12.5002 16.9246 12.5245 16.8036 12.5719 16.6909C12.6192 16.5782 12.6886 16.4761 12.7759 16.3905C12.8632 16.3049 12.9667 16.2377 13.0803 16.1926C13.194 16.1476 13.3155 16.1256 13.4377 16.1281H13.9377C14.1808 16.129 14.4137 16.2261 14.5853 16.3983C14.757 16.5705 14.8533 16.8037 14.8533 17.0469C14.8539 17.2778 14.9294 17.5024 15.0686 17.6867C15.2078 17.871 15.4032 18.0051 15.6252 18.0688C16.0861 18.206 16.5312 18.3914 16.9533 18.6219C17.1568 18.7327 17.3907 18.7747 17.62 18.7414C17.8492 18.7082 18.0616 18.6016 18.2252 18.4375C18.3997 18.2704 18.632 18.1771 18.8736 18.1771C19.1153 18.1771 19.3476 18.2704 19.5221 18.4375L19.8752 18.7906C20.0423 18.9651 20.1356 19.1974 20.1356 19.4391C20.1356 19.6807 20.0423 19.913 19.8752 20.0875C19.7071 20.2518 19.5976 20.4669 19.5638 20.6995C19.5299 20.9322 19.5734 21.1695 19.6877 21.375C19.9182 21.7971 20.1036 22.2422 20.2408 22.7031C20.3028 22.9269 20.4361 23.1243 20.6206 23.2653C20.805 23.4063 21.0305 23.4833 21.2627 23.4844C21.3836 23.4836 21.5035 23.5066 21.6155 23.5522C21.7275 23.5978 21.8294 23.6651 21.9153 23.7501C22.0012 23.8352 22.0695 23.9364 22.1163 24.0479C22.163 24.1594 22.1873 24.2791 22.1877 24.4V24.9C22.1869 25.1431 22.0897 25.376 21.9175 25.5476C21.7453 25.7193 21.5121 25.8156 21.2689 25.8156C21.0366 25.8162 20.8109 25.8929 20.6264 26.034C20.4418 26.1751 20.3086 26.3728 20.2471 26.5969C20.1078 27.058 19.9203 27.5032 19.6877 27.925C19.5742 28.1282 19.5298 28.3628 19.5614 28.5933C19.593 28.8239 19.6987 29.038 19.8627 29.2031C20.0315 29.376 20.1271 29.6074 20.1294 29.8491C20.1317 30.0907 20.0407 30.3239 19.8752 30.5L19.8814 30.4875ZM33.4002 29.4688H21.0408C20.9685 29.1137 20.7936 28.7877 20.5377 28.5313C20.5194 28.5081 20.5095 28.4795 20.5095 28.45C20.5095 28.4205 20.5194 28.3919 20.5377 28.3687C20.798 27.8877 21.0075 27.3808 21.1627 26.8563C21.1692 26.8271 21.1848 26.8008 21.2073 26.7811C21.2298 26.7615 21.2579 26.7495 21.2877 26.7469C21.7751 26.742 22.2411 26.5455 22.5849 26.1999C22.9287 25.8544 23.1228 25.3875 23.1252 24.9V24.4C23.1244 23.9082 22.9284 23.4369 22.5804 23.0895C22.2324 22.742 21.7607 22.5469 21.2689 22.5469C21.2392 22.5443 21.211 22.5323 21.1886 22.5126C21.1661 22.493 21.1505 22.4666 21.1439 22.4375C20.9887 21.913 20.7793 21.4061 20.5189 20.925C20.5009 20.9011 20.4912 20.8721 20.4912 20.8422C20.4912 20.8123 20.5009 20.7832 20.5189 20.7594C20.8616 20.409 21.0534 19.9385 21.0534 19.4484C21.0534 18.9584 20.8616 18.4879 20.5189 18.1375L20.1658 17.7844C19.8155 17.4418 19.3449 17.2499 18.8549 17.2499C18.3649 17.2499 17.8943 17.4418 17.5439 17.7844C17.5201 17.8024 17.491 17.8121 17.4611 17.8121C17.4312 17.8121 17.4022 17.8024 17.3783 17.7844C16.8972 17.5241 16.3903 17.3146 15.8658 17.1594C15.8367 17.1529 15.8104 17.1372 15.7907 17.1147C15.771 17.0923 15.759 17.0641 15.7564 17.0344C15.7564 16.5426 15.5613 16.0709 15.2139 15.7229C14.8664 15.3749 14.3951 15.179 13.9033 15.1781H13.4377C13.1913 15.1756 12.9469 15.2222 12.7187 15.3152C12.4905 15.4081 12.2831 15.5456 12.1085 15.7195C11.934 15.8935 11.7959 16.1004 11.7021 16.3283C11.6084 16.5562 11.561 16.8005 11.5627 17.0469C11.5601 17.0766 11.5481 17.1048 11.5284 17.1272C11.5088 17.1497 11.4825 17.1654 11.4533 17.1719C10.9288 17.3271 10.4219 17.5366 9.94082 17.7969C9.91767 17.8151 9.88905 17.825 9.85957 17.825C9.83009 17.825 9.80147 17.8151 9.77832 17.7969C9.59984 17.6187 9.38727 17.4784 9.15332 17.3844L9.08457 10.8906C9.57494 11.3098 10.1988 11.5403 10.8439 11.5406H33.3971C33.7833 11.5406 34.1537 11.6941 34.4268 11.9672C34.6999 12.2403 34.8533 12.6107 34.8533 12.9969V16.5406H30.6596C30.1392 16.5406 29.6239 16.6431 29.1432 16.8423C28.6624 17.0414 28.2256 17.3333 27.8577 17.7012C27.4897 18.0692 27.1978 18.506 26.9987 18.9867C26.7996 19.4675 26.6971 19.9828 26.6971 20.5031C26.6971 21.0235 26.7996 21.5388 26.9987 22.0195C27.1978 22.5003 27.4897 22.9371 27.8577 23.305C28.2256 23.673 28.6624 23.9649 29.1432 24.164C29.6239 24.3631 30.1392 24.4656 30.6596 24.4656H34.8502V28.025C34.8502 28.4112 34.6968 28.7816 34.4237 29.0547C34.1506 29.3278 33.7802 29.4812 33.3939 29.4812L33.4002 29.4688ZM34.8564 23.5313H30.6596C29.8573 23.5313 29.0879 23.2125 28.5206 22.6452C27.9533 22.0779 27.6346 21.3085 27.6346 20.5063C27.6346 19.704 27.9533 18.9346 28.5206 18.3673C29.0879 17.8 29.8573 17.4812 30.6596 17.4812H34.8502L34.8564 23.5313ZM28.9846 20.5031C28.9846 20.8344 29.0828 21.1583 29.2669 21.4337C29.4509 21.7092 29.7125 21.9238 30.0186 22.0506C30.3246 22.1774 30.6614 22.2106 30.9863 22.1459C31.3113 22.0813 31.6097 21.9218 31.844 21.6875C32.0782 21.4533 32.2378 21.1548 32.3024 20.8299C32.367 20.505 32.3338 20.1682 32.2071 19.8621C32.0803 19.5561 31.8656 19.2945 31.5902 19.1104C31.3147 18.9264 30.9909 18.8281 30.6596 18.8281C30.2156 18.829 29.79 19.0057 29.4761 19.3196C29.1621 19.6336 28.9854 20.0591 28.9846 20.5031ZM31.3971 20.5031C31.3971 20.649 31.3538 20.7916 31.2728 20.9129C31.1917 21.0341 31.0766 21.1287 30.9418 21.1845C30.807 21.2403 30.6588 21.2549 30.5157 21.2265C30.3726 21.198 30.2412 21.1278 30.1381 21.0246C30.0349 20.9215 29.9647 20.7901 29.9362 20.647C29.9078 20.5039 29.9224 20.3557 29.9782 20.2209C30.034 20.0861 30.1286 19.971 30.2498 19.8899C30.3711 19.8089 30.5137 19.7656 30.6596 19.7656C30.8552 19.7656 31.0428 19.8433 31.1811 19.9816C31.3194 20.1199 31.3971 20.3075 31.3971 20.5031Z" fill="#2C6DB5"/>
</svg>
